<svg xmlns="http://www.w3.org/2000/svg" xmlns:xlink="http://www.w3.org/1999/xlink" width="375.033" height="270.922" viewBox="0 0 375.033 270.922">
  <defs>
    <filter id="Caminho_1407" x="0" y="0" width="375.033" height="270.922" filterUnits="userSpaceOnUse">
      <feOffset dy="3" input="SourceAlpha"/>
      <feGaussianBlur stdDeviation="3" result="blur"/>
      <feFlood flood-opacity="0.161" result="color"/>
      <feComposite operator="out" in="SourceGraphic" in2="blur"/>
      <feComposite operator="in" in="color"/>
      <feComposite operator="in" in2="SourceGraphic"/>
    </filter>
  </defs>
  <g data-type="innerShadowGroup">
    <path id="Caminho_1407-2" data-name="Caminho 1407" d="M22,0H353a22.3,22.3,0,0,1,22.033,22.314c0,1.505-79.3,59.256-173.045,121.606-42.844,28.494-75.658,50.58-126.155,82.256S0,273.315,0,270.622V22A22,22,0,0,1,22,0Z" fill="#ff385c"/>
    <g transform="matrix(1, 0, 0, 1, 0, 0)" filter="url(#Caminho_1407)">
      <path id="Caminho_1407-3" data-name="Caminho 1407" d="M22,0H353a22.3,22.3,0,0,1,22.033,22.314c0,1.505-79.3,59.256-173.045,121.606-42.844,28.494-75.658,50.58-126.155,82.256S0,273.315,0,270.622V22A22,22,0,0,1,22,0Z" fill="#fff"/>
    </g>
  </g>
</svg>
