<svg xmlns="http://www.w3.org/2000/svg" width="13.949" height="10.462" viewBox="0 0 13.949 10.462">
  <path id="Icon_awesome-car" data-name="Icon awesome-car" d="M13.622,7.551H11.991l-.453-1.133A3.036,3.036,0,0,0,8.7,4.5H5.245A3.037,3.037,0,0,0,2.412,6.418L1.958,7.551H.327a.327.327,0,0,0-.317.406l.163.654a.327.327,0,0,0,.317.248h.547a1.731,1.731,0,0,0-.6,1.308v1.308a1.729,1.729,0,0,0,.436,1.142V14.09a.872.872,0,0,0,.872.872h.872a.872.872,0,0,0,.872-.872v-.872h6.975v.872a.872.872,0,0,0,.872.872h.872a.872.872,0,0,0,.872-.872V12.617a1.728,1.728,0,0,0,.436-1.142V10.167a1.732,1.732,0,0,0-.6-1.308h.547a.327.327,0,0,0,.317-.248l.163-.654a.327.327,0,0,0-.317-.406ZM4.03,7.066a1.308,1.308,0,0,1,1.214-.822H8.7a1.308,1.308,0,0,1,1.214.822l.543,1.358H3.487Zm-1.415,4.4a.869.869,0,1,1,0-1.738,1.677,1.677,0,0,1,1.308,1.3C3.923,11.556,3.139,11.469,2.616,11.469Zm8.718,0c-.523,0-1.308.087-1.308-.435a1.677,1.677,0,0,1,1.308-1.3.869.869,0,1,1,0,1.738Z" transform="translate(0 -4.5)" fill="#a2a2a2"/>
</svg>
