<svg xmlns="http://www.w3.org/2000/svg" width="13.714" height="12" viewBox="0 0 13.714 12">
  <path id="Icon_awesome-shower" data-name="Icon awesome-shower" d="M10.437,5.025,6.2,9.259a.643.643,0,0,1-.909,0l-.3-.3a.643.643,0,0,1,0-.909l0,0A3.006,3.006,0,0,1,4.9,4.283,2.082,2.082,0,0,0,1.714,6.047v8.2H0v-8.2A3.8,3.8,0,0,1,6.365,3.252a3.006,3.006,0,0,1,2.857.563l0,0a.643.643,0,0,1,.909,0l.3.3A.643.643,0,0,1,10.437,5.025Zm-.152,1.939a.429.429,0,1,1-.429-.429A.429.429,0,0,1,10.286,6.964Zm.857,0a.429.429,0,1,1,.429.429A.429.429,0,0,1,11.143,6.964Zm2.571,0a.429.429,0,1,1-.429-.429A.429.429,0,0,1,13.714,6.964Zm-4.286.857A.429.429,0,1,1,9,7.393.429.429,0,0,1,9.429,7.821Zm1.286-.429a.429.429,0,1,1-.429.429A.429.429,0,0,1,10.714,7.393Zm2.143.429a.429.429,0,1,1-.429-.429A.429.429,0,0,1,12.857,7.821Zm-4.286.857a.429.429,0,1,1-.429-.429A.429.429,0,0,1,8.571,8.679Zm.857,0a.429.429,0,1,1,.429.429A.429.429,0,0,1,9.429,8.679Zm2.571,0a.429.429,0,1,1-.429-.429A.429.429,0,0,1,12,8.679Zm-3.429.857A.429.429,0,1,1,9,9.964.429.429,0,0,1,8.571,9.536Zm2.571,0a.429.429,0,1,1-.429-.429A.429.429,0,0,1,11.143,9.536Zm-2.571.857a.429.429,0,1,1-.429-.429A.429.429,0,0,1,8.571,10.393Zm1.714,0a.429.429,0,1,1-.429-.429A.429.429,0,0,1,10.286,10.393Zm-.857.857A.429.429,0,1,1,9,10.821.429.429,0,0,1,9.429,11.25Zm-.857.857a.429.429,0,1,1-.429-.429A.429.429,0,0,1,8.571,12.107Z" transform="translate(0 -2.25)" fill="#a2a2a2"/>
</svg>
