<svg xmlns="http://www.w3.org/2000/svg" width="11" height="8.643" viewBox="0 0 11 8.643">
  <g id="Grupo_28" data-name="Grupo 28" transform="translate(-2.25 -5.625)">
    <path id="Caminho_10" data-name="Caminho 10" d="M12.715,14.625H12.7a.537.537,0,0,0-.535.535.054.054,0,0,1-.054.054H3.384a.054.054,0,0,1-.054-.054.537.537,0,0,0-.535-.535h-.01a.537.537,0,0,0-.535.535V19.59a.537.537,0,0,0,.535.535H2.8a.537.537,0,0,0,.535-.535v-.152a.1.1,0,0,1,.1-.1h8.643a.1.1,0,0,1,.1.1v.152a.537.537,0,0,0,.535.535h.01a.537.537,0,0,0,.535-.535V15.16A.537.537,0,0,0,12.715,14.625Z" transform="translate(0 -5.857)" fill="#a2a2a2"/>
    <path id="Caminho_11" data-name="Caminho 11" d="M5.54,8.915h.552a.1.1,0,0,0,.1-.1V8.5A.394.394,0,0,1,6.584,8.1H8.978a.394.394,0,0,1,.393.393v.319a.1.1,0,0,0,.1.1h.589a.1.1,0,0,0,.1-.1V8.5a.394.394,0,0,1,.393-.393h2.394a.394.394,0,0,1,.393.393v.319a.1.1,0,0,0,.1.1h.552a.2.2,0,0,0,.2-.2V6.411a.788.788,0,0,0-.786-.786H6.129a.788.788,0,0,0-.786.786V8.719A.2.2,0,0,0,5.54,8.915Z" transform="translate(-2.013)" fill="#a2a2a2"/>
  </g>
</svg>
